<?xml version="1.0" encoding="utf-8"?>
<!-- Generator: Adobe Illustrator 21.1.0, SVG Export Plug-In . SVG Version: 6.00 Build 0)  -->
<svg version="1.1" id="Layer_2" xmlns="http://www.w3.org/2000/svg" xmlns:xlink="http://www.w3.org/1999/xlink" x="0px" y="0px"
	 viewBox="0 0 80 80" style="enable-background:new 0 0 80 80;" xml:space="preserve">
<style type="text/css">
	.st0{fill:#22B573;}
</style>
<path class="st0" d="M78.8,74.1L41.7,4.6c-0.3-0.7-1-1.1-1.8-1.1s-1.4,0.4-1.8,1.1L1,74.1c-0.3,0.6-0.3,1.4,0,2c0.4,0.6,1,1,1.7,1
	H77c0.7,0,1.4-0.4,1.7-1S79.1,74.7,78.8,74.1z M40.6,63.9c-7.7,0.2-14.1-5.8-14.3-13.5c0-0.6,0-1.3,0.1-1.9c2.5-1.3,5.3-2.2,8.5-2.7
	l-0.1,0.1c0.1-0.1,0.3-0.1,0.4-0.1c0.4-0.1,0.8-0.1,1.1-0.1c1.9,0.1,3.5,1.6,3.5,3.5c0.1,2-1.5,3.7-3.6,3.8c-2,0.1-3.7-1.5-3.8-3.6
	c0-0.1,0-0.2,0-0.3c-0.3,0.8-0.4,1.7-0.4,2.6c0.1,3.9,3.4,7,7.3,6.8c3.9-0.1,7-3.4,6.8-7.3C46,49,45,47,43.3,45.8
	c4.1,0.5,7.7,1.7,10.6,2.7c0,0.4,0.1,0.8,0.1,1.1C54.3,57.3,48.2,63.7,40.6,63.9z"/>
</svg>
